<?xml version="1.0" encoding="UTF-8"?><svg id="Layer_1" xmlns="http://www.w3.org/2000/svg" viewBox="0 0 126.48 127.92"><defs><style>.cls-1{stroke-width:0px;}</style></defs><path class="cls-1" d="m126.48,38.64v.96c-1.09.88-2.15,1.79-3.27,2.63-4.86,3.64-9.85,7.1-14.32,11.24-3.27,3.03-2.13,2.86-6.2,1.07-1.22-.54-1.34-.45-1.34.91,0,7.31.01,14.63.01,21.94,0,15.91,0,31.81-.03,47.72,0,.94.24,1.92-.3,2.81H25.68c-.66-.69-.53-1.56-.53-2.39,0-22.96,0-45.92,0-68.87,0-.52-.01-1.04,0-1.56.01-.83-.3-1.12-1.1-.72-.68.33-1.42.57-2.07.95-1.07.62-1.88.4-2.78-.43-3.93-3.65-8.06-7.05-12.48-10.11-2.37-1.64-4.57-3.5-6.71-5.43,0-.16,0-.32,0-.48.51-.67.97-1.38,1.54-1.99,4.1-4.37,7.89-9.01,11.63-13.69,1.69-2.12,3.49-4.17,5.09-6.36,3.74-5.14,9.06-7.96,14.8-10.1,4.49-1.67,9.09-3.03,13.59-4.66C48.39,1.44,50.26,1.08,51.84,0h.96c1.88,2.01,4.15,3.31,6.87,3.81,1.63.3,3.27.08,4.89.23,3.23.29,5.79-1.1,8.16-3.05.4-.33.8-.66,1.2-.99.24,0,.48,0,.72,0,.55.23,1.1.46,1.66.69,7.64,3.23,15.76,5.2,23.22,8.94,2.79,1.4,5.17,3.11,7.11,5.5,3.78,4.64,7.56,9.29,11.35,13.93,2.7,3.31,5.85,6.23,8.5,9.59Z"/></svg>