<svg width="300" height="400" viewBox="0 0 300 400" fill="none" xmlns="http://www.w3.org/2000/svg">
  <!-- T-shirt body -->
  <path d="M60 80C60 60 80 40 100 40H200C220 40 240 60 240 80V320C240 340 220 360 200 360H100C80 360 60 340 60 320V80Z" fill="black"/>
  
  <!-- Left sleeve -->
  <path d="M20 100C20 80 40 60 60 60H100V120H60C40 120 20 100 20 80V100Z" fill="black"/>
  
  <!-- Right sleeve -->
  <path d="M200 60H240C260 60 280 80 280 100V120C280 140 260 160 240 160H200V60Z" fill="black"/>
  
  <!-- Neck opening -->
  <path d="M120 40C140 40 160 60 160 80C160 100 140 120 120 120C100 120 80 100 80 80C80 60 100 40 120 40Z" fill="white"/>
</svg>
